HIERARCHY
ROOT root
{
	OFFSET 0.000000 0.000000 0.000000
	CHANNELS 6 Xposition Yposition Zposition Zrotation Yrotation Xrotation
	JOINT lhip
	{
		OFFSET 0.058581 -0.082280 -0.017664
		CHANNELS 3 Zrotation Yrotation Xrotation
		JOINT lknee
		{
			OFFSET 0.043451 -0.386469 0.008037
			CHANNELS 3 Zrotation Yrotation Xrotation
			JOINT lankle
			{
				OFFSET -0.014790 -0.426874 -0.037428
				CHANNELS 3 Zrotation Yrotation Xrotation
				JOINT ltoe
				{
					OFFSET 0.041054 -0.060286 0.122042
					CHANNELS 3 Zrotation Yrotation Xrotation
					End Site
					{
						OFFSET 0.000000 0.000000 0.000000
					}
				}
			}
		}
	}
	JOINT rhip
	{
		OFFSET -0.060310 -0.090513 -0.013543
		CHANNELS 3 Zrotation Yrotation Xrotation
		JOINT rknee
		{
			OFFSET -0.043257 -0.383688 -0.004843
			CHANNELS 3 Zrotation Yrotation Xrotation
			JOINT rankle
			{
				OFFSET 0.019056 -0.420046 -0.034562
				CHANNELS 3 Zrotation Yrotation Xrotation
				JOINT rtoe
				{
					OFFSET -0.034840 -0.062106 0.130323
					CHANNELS 3 Zrotation Yrotation Xrotation
					End Site
					{
						OFFSET 0.000000 0.000000 0.000000
					}
				}
			}
		}
	}
	JOINT lowerback
	{
		OFFSET 0.004439 0.124404 -0.038385
		CHANNELS 3 Zrotation Yrotation Xrotation
		JOINT upperback
		{
			OFFSET 0.004488 0.137956 0.026820
			CHANNELS 3 Zrotation Yrotation Xrotation
			JOINT chest
			{
				OFFSET -0.002265 0.056032 0.002855
				CHANNELS 3 Zrotation Yrotation Xrotation
				JOINT lowerneck
				{
					OFFSET -0.013390 0.211636 -0.033468
					CHANNELS 3 Zrotation Yrotation Xrotation
					JOINT upperneck
					{
						OFFSET 0.010113 0.088937 0.050410
						CHANNELS 3 Zrotation Yrotation Xrotation
						End Site
						{
							OFFSET 0.000000 0.000000 0.000000
						}
					}
				}
				JOINT lclavicle
				{
					OFFSET 0.071702 0.114000 -0.018898
					CHANNELS 3 Zrotation Yrotation Xrotation
					JOINT lshoulder
					{
						OFFSET 0.122921 0.045205 -0.019046
						CHANNELS 3 Zrotation Yrotation Xrotation
						JOINT lelbow
						{
							OFFSET 0.255332 -0.015649 -0.022946
							CHANNELS 3 Zrotation Yrotation Xrotation
							JOINT lwrist
							{
								OFFSET 0.265709 0.012698 -0.007375
								CHANNELS 3 Zrotation Yrotation Xrotation
								End Site
								{
									OFFSET 0.000000 0.000000 0.000000
								}
							}
						}
					}
				}
				JOINT rclavicle
				{
					OFFSET -0.082954 0.112472 -0.023707
					CHANNELS 3 Zrotation Yrotation Xrotation
					JOINT rshoulder
					{
						OFFSET -0.113228 0.046853 -0.008472
						CHANNELS 3 Zrotation Yrotation Xrotation
						JOINT relbow
						{
							OFFSET -0.260127 -0.014369 -0.031269
							CHANNELS 3 Zrotation Yrotation Xrotation
							JOINT rwrist
							{
								OFFSET -0.269108 0.006794 -0.006027
								CHANNELS 3 Zrotation Yrotation Xrotation
								End Site
								{
									OFFSET 0.000000 0.000000 0.000000
								}
							}
						}
					}
				}
			}
		}
	}
}
MOTION
Frames: 10
Frame Time: 0.033333
1.271102 0.727354 1.030974 91.182770 -0.676060 86.248343 -4.952448 -1.837939 5.924203 -1.855314 -11.135929 2.330991 2.816426 5.043229 -11.371584 0.000000 -0.000000 0.000000 4.301597 -3.128668 5.425345 -1.983688 -1.181660 3.356060 1.024210 -8.161360 -11.736241 0.000000 -0.000000 0.000000 0.767669 2.237660 -0.362114 -0.563271 -1.834233 0.278394 -2.113970 -0.461751 -0.047036 1.498337 0.887726 0.796846 1.046601 -2.432509 6.871458 -25.939838 -0.857069 4.486315 -57.232722 -5.493229 12.202781 3.025121 -24.128260 13.939925 -11.738672 -8.526122 -5.259995 22.849992 1.520899 4.963296 64.927031 -1.077422 12.292826 -15.218805 24.673336 -2.137441 11.663330 6.217797 -15.035247 
1.272262 0.727233 1.030721 91.133713 -0.709013 86.443516 -5.015921 -2.325188 6.336392 -1.731320 -11.050678 1.260282 3.031918 5.412992 -11.044127 0.000000 -0.000000 0.000000 4.320266 -2.846256 5.409813 -2.020594 -1.144576 3.168621 1.327899 -8.445366 -11.834462 0.000000 -0.000000 0.000000 0.813769 2.177851 -0.804343 -0.737524 -1.724587 0.348754 -2.074457 -0.430757 0.266798 1.529197 1.089748 0.341923 1.172391 -2.274572 6.961832 -25.690495 -1.256586 4.599328 -57.559844 -5.861868 12.294825 3.191039 -24.251522 13.648741 -11.374051 -8.442379 -5.767021 22.653741 1.858608 4.934195 65.088248 -0.695845 12.551063 -15.644325 25.210825 -2.201508 11.806249 6.150421 -15.218989 
1.272819 0.727447 1.030567 91.151121 -0.711248 86.631254 -5.009064 -2.266925 6.019578 -1.819172 -10.264022 1.402455 3.166387 5.629629 -11.282822 0.000000 -0.000000 0.000000 4.350538 -2.824202 5.216497 -2.131434 -1.433010 3.255165 1.321815 -8.226273 -11.835049 0.000000 -0.000000 0.000000 0.900650 2.131282 -0.939840 -0.747075 -1.771048 0.483359 -2.133684 -0.370162 0.068063 1.552596 1.144683 0.155590 1.124626 -2.274866 7.026902 -25.675390 -1.603253 4.646272 -57.634887 -5.876032 12.452740 3.271336 -24.470309 13.836083 -11.724459 -8.894308 -5.778146 22.381600 2.053293 4.869343 65.377376 -0.368481 12.457102 -15.778697 25.693461 -2.330262 11.714707 6.569035 -15.473408 
1.273818 0.727557 1.030256 91.172251 -0.630424 86.711122 -4.906003 -2.234205 6.049259 -1.663486 -10.292800 1.319034 2.679452 5.548718 -11.040360 0.000000 -0.000000 0.000000 4.441020 -2.861097 5.217792 -2.154688 -1.425671 3.132671 1.224183 -8.207938 -11.788408 0.000000 -0.000000 0.000000 1.004655 2.101528 -1.005149 -0.768182 -1.853230 0.596985 -2.146527 -0.397191 0.040554 1.680510 1.247038 -0.056744 1.174880 -2.177352 7.003349 -25.716756 -1.894688 4.524249 -57.761143 -5.989396 12.549466 3.373163 -24.673046 13.677556 -11.580134 -8.971904 -5.952846 22.209581 2.272694 4.733409 65.317636 0.055053 12.499999 -16.034528 26.458082 -2.596603 11.564993 6.821664 -15.735702 
1.274436 0.727617 1.030105 91.242771 -0.648866 86.777779 -4.948708 -2.268668 6.024521 -1.665230 -10.326758 1.314993 2.831427 5.507275 -10.994775 0.000000 -0.000000 0.000000 4.412538 -2.803015 5.206131 -2.078062 -1.506627 3.164463 1.257831 -8.314663 -11.953094 0.000000 -0.000000 0.000000 0.947452 2.044763 -0.979697 -0.758402 -1.912095 0.546006 -2.140146 -0.398282 0.008061 1.782044 1.196809 -0.155570 1.212339 -2.236301 6.986701 -25.691242 -1.932753 4.441014 -57.833496 -6.064715 12.583274 3.286643 -24.804215 13.822222 -11.720511 -8.847347 -6.028446 22.155590 2.344828 4.644862 65.225275 0.207961 12.520138 -16.057319 26.966517 -2.769298 11.565548 6.842873 -15.872318 
1.275341 0.727663 1.029922 91.236781 -0.651391 86.813290 -4.940803 -2.210761 6.075258 -1.696441 -10.294904 1.306849 2.776728 5.478627 -10.932583 0.000000 -0.000000 0.000000 4.392586 -2.829073 5.218663 -2.058875 -1.559713 3.181579 1.257853 -8.272462 -11.982427 0.000000 -0.000000 0.000000 0.927291 2.028321 -0.964533 -0.784462 -1.959178 0.570155 -2.140124 -0.411115 -0.046195 1.950315 1.244436 -0.231569 1.258810 -2.180370 7.076957 -25.648501 -2.057413 4.406903 -57.884407 -6.035409 12.642512 3.180472 -25.098088 13.949316 -11.579494 -9.027995 -5.919101 22.188458 2.352109 4.591432 65.129019 0.415551 12.531990 -16.311897 27.608097 -2.952398 11.310341 7.004263 -15.817685 
1.275967 0.727812 1.029762 91.262718 -0.601983 86.901968 -4.901046 -2.220874 6.052251 -1.602141 -10.352575 1.228391 2.672529 5.390689 -11.049094 0.000000 -0.000000 0.000000 4.475947 -2.780384 5.132154 -2.156915 -1.596852 3.180296 1.237560 -8.249450 -11.894461 0.000000 -0.000000 0.000000 0.983198 1.971764 -0.836015 -0.784479 -2.034916 0.430761 -2.152221 -0.436773 -0.130593 1.960825 1.425159 -0.267957 1.358645 -2.071915 7.136294 -25.586372 -2.176804 4.393664 -58.074978 -6.053786 12.711164 3.079653 -25.083129 14.101944 -11.464456 -9.043169 -5.708785 22.120680 2.380008 4.459456 65.067746 0.473338 12.548318 -16.382959 28.172719 -3.069359 11.162705 7.127049 -15.938251 
1.276842 0.727834 1.029601 91.299558 -0.600008 87.054359 -4.871988 -2.270365 5.908991 -1.694564 -10.207296 1.248439 2.836575 5.391631 -10.895517 0.000000 -0.000000 0.000000 4.491746 -2.704693 5.060994 -2.119664 -1.708224 3.153946 1.231556 -8.304604 -11.954115 0.000000 -0.000000 0.000000 0.943425 1.902933 -0.783888 -0.736742 -2.116003 0.182716 -2.149285 -0.504094 -0.181397 2.004477 1.461721 -0.110257 1.240375 -2.050844 7.210494 -25.582843 -2.060124 4.545311 -58.294346 -5.989545 12.762046 3.179400 -25.320689 14.164153 -11.597937 -9.063417 -5.943786 21.989223 2.401931 4.561631 65.137764 0.610641 12.614864 -16.541556 28.531891 -3.181467 11.075451 7.039511 -16.132294 
1.277470 0.727772 1.029491 91.224844 -0.551477 87.140758 -4.814015 -2.292228 5.890567 -1.690721 -10.096851 1.229236 2.752526 5.347742 -11.017881 0.000000 -0.000000 0.000000 4.550355 -2.688078 4.995167 -2.138350 -1.692837 3.158072 1.209058 -8.279820 -11.959090 0.000000 -0.000000 0.000000 0.979056 1.891402 -0.776137 -0.752476 -2.105593 0.143739 -2.154964 -0.511140 -0.233377 2.061717 1.434315 -0.133657 1.280323 -1.992170 7.235995 -25.525376 -2.059859 4.536079 -58.471145 -5.922029 12.872178 3.127731 -25.356605 14.282057 -11.511022 -9.241084 -5.919651 21.947214 2.468615 4.582415 65.161684 0.691303 12.660087 -16.557273 28.555714 -3.222242 10.987270 7.230327 -16.168825 
1.278324 0.727776 1.029326 91.077977 -0.548419 87.126342 -4.836248 -2.207742 6.039192 -1.561697 -10.161431 0.997415 2.804303 5.299371 -10.941509 0.000000 -0.000000 0.000000 4.546206 -2.690893 5.039509 -2.236410 -1.593107 3.132133 1.255111 -8.074664 -11.990120 0.000000 -0.000000 0.000000 0.982744 1.879306 -0.859517 -0.747327 -2.090023 0.336993 -2.164567 -0.455355 -0.149398 2.102682 1.459504 -0.237300 1.237380 -2.107110 7.236253 -25.636303 -2.028093 4.374354 -58.505511 -5.894512 12.951490 3.006914 -25.406950 14.391284 -11.541486 -9.206331 -5.809531 21.918512 2.495646 4.481720 65.100427 0.946341 12.734530 -16.365546 28.297251 -3.087510 11.085952 7.285089 -16.087328 
